<svg width="32" height="32" viewBox="0 0 32 32" fill="none" xmlns="http://www.w3.org/2000/svg">
<path d="M16.0013 29.3337C23.3651 29.3337 29.3346 23.3641 29.3346 16.0003C29.3346 8.63653 23.3651 2.66699 16.0013 2.66699C8.63751 2.66699 2.66797 8.63653 2.66797 16.0003C2.66797 23.3641 8.63751 29.3337 16.0013 29.3337Z" fill="#3483DF"/>
<path d="M12.668 14.9327V17.0666C12.668 19.0923 12.668 20.1051 13.2756 20.5146C13.8833 20.9239 14.7144 20.471 16.3766 19.5651L18.3342 18.4981C20.3345 17.4079 21.3346 16.8629 21.3346 15.9997C21.3346 15.1365 20.3345 14.5914 18.3342 13.5013L16.3766 12.4343C14.7144 11.5283 13.8833 11.0754 13.2756 11.4848C12.668 11.8942 12.668 12.907 12.668 14.9327Z" fill="#FAFAFA"/>
</svg>
