<svg width="64" height="64" viewBox="0 0 64 64" fill="none" xmlns="http://www.w3.org/2000/svg">
<circle cx="32" cy="32" r="31.5" fill="white" stroke="#E0DEF7"/>
<circle cx="32" cy="32" r="28" fill="#0F0F0F"/>
<g clip-path="url(#clip0_1_4978)">
<path fill-rule="evenodd" clip-rule="evenodd" d="M18.6667 32.0001H21.6296V42.3705C21.6296 43.1563 21.9417 43.9099 22.4974 44.4656C23.0531 45.0212 23.8067 45.3334 24.5925 45.3334H39.4073C40.1932 45.3334 40.9468 45.0212 41.5025 44.4656C42.0581 43.9099 42.3703 43.1563 42.3703 42.3705V32.0001H42.3704H45.3333L32 18.6667L18.6667 32.0001Z" fill="white"/>
<path d="M21.6296 32.0001H22.6296C22.6296 31.4478 22.1818 31.0001 21.6296 31.0001V32.0001ZM18.6667 32.0001L17.9596 31.293C17.6736 31.579 17.588 32.0091 17.7428 32.3828C17.8976 32.7564 18.2622 33.0001 18.6667 33.0001V32.0001ZM22.4974 44.4656L23.2045 43.7585L22.4974 44.4656ZM41.5025 44.4656L40.7954 43.7585L40.7954 43.7585L41.5025 44.4656ZM42.3703 32.0001V31.0001C41.818 31.0001 41.3703 31.4478 41.3703 32.0001H42.3703ZM45.3333 32.0001V33.0001C45.7378 33.0001 46.1024 32.7564 46.2572 32.3828C46.412 32.0091 46.3264 31.579 46.0404 31.293L45.3333 32.0001ZM32 18.6667L32.7071 17.9596C32.3166 17.5691 31.6834 17.5691 31.2929 17.9596L32 18.6667ZM21.6296 31.0001H18.6667V33.0001H21.6296V31.0001ZM20.6296 32.0001V42.3705H22.6296V32.0001H20.6296ZM20.6296 42.3705C20.6296 43.4215 21.0471 44.4295 21.7903 45.1727L23.2045 43.7585C22.8364 43.3903 22.6296 42.8911 22.6296 42.3705H20.6296ZM21.7903 45.1727C22.5335 45.9159 23.5415 46.3334 24.5925 46.3334V44.3334C24.0719 44.3334 23.5726 44.1266 23.2045 43.7585L21.7903 45.1727ZM24.5925 46.3334H39.4073V44.3334H24.5925V46.3334ZM39.4073 46.3334C40.4584 46.3334 41.4664 45.9159 42.2096 45.1727L40.7954 43.7585C40.4272 44.1266 39.928 44.3334 39.4073 44.3334V46.3334ZM42.2096 45.1727C42.9528 44.4295 43.3703 43.4215 43.3703 42.3705H41.3703C41.3703 42.8911 41.1635 43.3903 40.7954 43.7585L42.2096 45.1727ZM43.3703 42.3705V32.0001H41.3703V42.3705H43.3703ZM42.3704 31.0001H42.3703V33.0001H42.3704V31.0001ZM45.3333 31.0001H42.3704V33.0001H45.3333V31.0001ZM31.2929 19.3739L44.6262 32.7072L46.0404 31.293L32.7071 17.9596L31.2929 19.3739ZM19.3738 32.7072L32.7071 19.3739L31.2929 17.9596L17.9596 31.293L19.3738 32.7072Z" fill="white"/>
<path d="M28 34.0002L30.6667 36.6668L36 31.3335" stroke="#3483DF" stroke-width="2" stroke-linecap="round" stroke-linejoin="round"/>
</g>
<path d="M40 40H64V52C64 58.6274 58.6274 64 52 64C45.3726 64 40 58.6274 40 52V40Z" fill="#3483DF"/>
<path d="M56.36 46.7801L52.6933 45.4068C52.3133 45.2668 51.6933 45.2668 51.3133 45.4068L47.6467 46.7801C46.94 47.0468 46.3667 47.8734 46.3667 48.6268V54.0268C46.3667 54.5668 46.72 55.2801 47.1533 55.6001L50.82 58.3401C51.4667 58.8268 52.5267 58.8268 53.1733 58.3401L56.84 55.6001C57.2733 55.2734 57.6267 54.5668 57.6267 54.0268V48.6268C57.6333 47.8734 57.06 47.0468 56.36 46.7801ZM52.5 52.5801V54.3334C52.5 54.6068 52.2733 54.8334 52 54.8334C51.7267 54.8334 51.5 54.6068 51.5 54.3334V52.5801C50.8267 52.3668 50.3333 51.7401 50.3333 51.0001C50.3333 50.0801 51.08 49.3334 52 49.3334C52.92 49.3334 53.6667 50.0801 53.6667 51.0001C53.6667 51.7468 53.1733 52.3668 52.5 52.5801Z" fill="white"/>
<defs>
<clipPath id="clip0_1_4978">
<rect width="32" height="32" fill="white" transform="translate(16 16)"/>
</clipPath>
</defs>
</svg>
